HIERARCHY
ROOT Hips
{
	OFFSET 0.000000 0.000000 0.000000
	CHANNELS 6 Xposition Yposition Zposition Xrotation Yrotation Zrotation
	JOINT LeftUpLeg_virtual
	{
		OFFSET 0.000000 0.000000 0.000000
		CHANNELS 3 Xrotation Yrotation Zrotation
		JOINT LeftUpLeg
		{
			OFFSET 10.205400 -3.823500 0.155100
			CHANNELS 3 Xrotation Yrotation Zrotation
			JOINT LeftLeg
			{
				OFFSET 0.708757 -12.982077 0.567790
				CHANNELS 3 Xrotation Yrotation Zrotation
				JOINT LeftFoot
				{
					OFFSET -0.708756 -10.717838 -2.184338
					CHANNELS 3 Xrotation Yrotation Zrotation
					JOINT LeftToeBase
					{
						OFFSET 0.108149 -7.191104 7.560241
						CHANNELS 3 Xrotation Yrotation Zrotation
						JOINT LeftToe_End
						{
							OFFSET 0.070230 0.081724 4.490308
							CHANNELS 3 Xrotation Yrotation Zrotation
							End Site
							{
								OFFSET 0 0 0
							}
						}
					}
				}
			}
		}
	}
	JOINT RightUpLeg_virtual
	{
		OFFSET 0.000000 0.000000 0.000000
		CHANNELS 3 Xrotation Yrotation Zrotation
		JOINT RightUpLeg
		{
			OFFSET -10.205400 -3.823500 0.005500
			CHANNELS 3 Xrotation Yrotation Zrotation
			JOINT RightLeg
			{
				OFFSET -0.708756 -12.982134 0.610632
				CHANNELS 3 Xrotation Yrotation Zrotation
				JOINT RightFoot
				{
					OFFSET 0.708754 -10.717769 -1.945823
					CHANNELS 3 Xrotation Yrotation Zrotation
					JOINT RightToeBase
					{
						OFFSET -0.108140 -7.191069 7.372968
						CHANNELS 3 Xrotation Yrotation Zrotation
						JOINT RightToe_End
						{
							OFFSET -0.070227 0.081735 4.479403
							CHANNELS 3 Xrotation Yrotation Zrotation
							End Site
							{
								OFFSET 0 0 0
							}
						}
					}
				}
			}
		}
	}
	JOINT Spine_virtual
	{
		OFFSET 0.000000 0.000000 0.000000
		CHANNELS 3 Xrotation Yrotation Zrotation
		JOINT Spine
		{
			OFFSET 0.000000 6.876099 0.125700
			CHANNELS 3 Xrotation Yrotation Zrotation
			JOINT Spine1
			{
				OFFSET 0.000000 5.730043 0.104720
				CHANNELS 3 Xrotation Yrotation Zrotation
				JOINT Spine1_split
				{
					OFFSET 0.000000 5.730043 0.104720
					CHANNELS 3 Xrotation Yrotation Zrotation
					JOINT Spine2
					{
						OFFSET 0.000000 5.730043 0.104720
						CHANNELS 3 Xrotation Yrotation Zrotation
						JOINT Neck_virtual
						{
							OFFSET 0.000000 0.000000 0.000000
							CHANNELS 3 Xrotation Yrotation Zrotation
							JOINT Neck
							{
								OFFSET 0.000000 10.314075 0.188496
								CHANNELS 3 Xrotation Yrotation Zrotation
								JOINT Head
								{
									OFFSET 0.000000 7.643700 -2.377400
									CHANNELS 3 Xrotation Yrotation Zrotation
									JOINT HeadTop_End
									{
										OFFSET 0.000000 43.788605 -13.619600
										CHANNELS 3 Xrotation Yrotation Zrotation
										End Site
										{
											OFFSET 0 0 0
										}
									}
								}
							}
						}
						JOINT LeftShoulder_virtual
						{
							OFFSET 0.000000 0.000000 0.000000
							CHANNELS 3 Xrotation Yrotation Zrotation
							JOINT LeftShoulder
							{
								OFFSET 2.196100 4.412489 0.087492
								CHANNELS 3 Xrotation Yrotation Zrotation
								JOINT LeftShoulder_split
								{
									OFFSET 2.196100 4.412489 0.087492
									CHANNELS 3 Xrotation Yrotation Zrotation
									JOINT LeftArm
									{
										OFFSET 8.771219 -2.981674 -0.026999
										CHANNELS 3 Xrotation Yrotation Zrotation
										JOINT LeftForeArm
										{
											OFFSET 8.512804 0.000000 -0.000000
											CHANNELS 3 Xrotation Yrotation Zrotation
											JOINT LeftHand
											{
												OFFSET 18.484802 0.000000 -0.000000
												CHANNELS 3 Xrotation Yrotation Zrotation
												End Site
												{
													OFFSET 0 0 0
												}
											}
										}
									}
								}
							}
						}
						JOINT RightShoulder_virtual
						{
							OFFSET 0.000000 0.000000 0.000000
							CHANNELS 3 Xrotation Yrotation Zrotation
							JOINT RightShoulder
							{
								OFFSET -2.196100 4.412496 0.070690
								CHANNELS 3 Xrotation Yrotation Zrotation
								JOINT RightShoulder_split
								{
									OFFSET -2.196100 4.412496 0.070690
									CHANNELS 3 Xrotation Yrotation Zrotation
									JOINT RightArm
									{
										OFFSET -8.771282 -2.981682 -0.094208
										CHANNELS 3 Xrotation Yrotation Zrotation
										JOINT RightForeArm
										{
											OFFSET -8.494598 0.000000 0.000000
											CHANNELS 3 Xrotation Yrotation Zrotation
											JOINT RightHand
											{
												OFFSET -18.483803 0.000000 0.000001
												CHANNELS 3 Xrotation Yrotation Zrotation
												End Site
												{
													OFFSET 0 0 0
												}
											}
										}
									}
								}
							}
						}
					}
				}
			}
		}
	}
}
MOTION
Frames: 9
Frame Time: 0.03333333
0.234720 33.406891 -19.354908 0.000000 0.000000 0.000000 167.257167 -67.226581 167.061195 -31.044856 6.501136 17.789096 46.033464 -2.908398 -2.736968 -14.545721 1.798537 -3.580553 2.566742 4.962130 -7.109630 0.000000 0.000000 0.000000 167.257167 -67.226581 167.061195 -13.581428 -12.774844 7.145878 25.116962 9.093588 0.846321 -14.894138 0.291588 -11.118123 -2.250430 -8.125873 0.521809 0.000000 0.000000 0.000000 167.257167 -67.226581 167.061195 4.606184 1.463770 4.133253 -5.164930 2.150019 -2.923070 0.000000 0.000000 0.000000 0.000000 0.000000 0.000000 -5.019358 1.931773 -3.197911 0.778540 24.374527 9.969768 4.517282 28.566470 -14.246893 0.000000 0.000000 0.000000 -5.019358 1.931773 -3.197911 1.072969 -0.392533 0.398491 0.000000 0.000000 0.000000 6.971127 0.203095 -68.561507 7.857141 -19.444664 -8.492515 0.000000 0.000000 0.000000 -5.019358 1.931773 -3.197911 2.343097 -3.462310 16.741270 0.000000 0.000000 0.000000 13.478356 29.342756 51.853577 13.446240 26.386592 -0.605793 0.000000 0.000000 0.000000 
-0.227734 33.423740 -20.164574 0.000000 0.000000 0.000000 169.977782 -61.374311 170.036630 -33.272771 -0.623491 12.708527 45.694826 -2.336411 -2.500162 -11.387328 2.277972 -5.493540 1.754117 6.907944 -7.008086 0.000000 0.000000 0.000000 169.977782 -61.374311 170.036630 -13.213904 -10.598101 8.455542 24.060197 13.411904 1.952468 -13.019509 -0.368129 -14.004581 -2.374848 -7.985333 0.467722 0.000000 0.000000 0.000000 169.977782 -61.374311 170.036630 5.164850 2.009658 3.989381 -5.105464 2.660206 -2.985250 0.000000 0.000000 0.000000 0.000000 0.000000 0.000000 -4.948700 2.420736 -3.321704 1.055482 22.542846 10.042759 3.926667 26.820355 -13.626392 0.000000 0.000000 0.000000 -4.948700 2.420736 -3.321704 1.084988 -0.270529 0.765035 0.000000 0.000000 0.000000 7.759391 1.002654 -69.954558 9.038384 -17.908088 -8.643457 0.000000 0.000000 0.000000 -4.948700 2.420736 -3.321704 2.402570 -3.497403 16.751760 0.000000 0.000000 0.000000 12.583206 31.110911 52.037763 13.766167 26.236999 -1.171569 0.000000 0.000000 0.000000 
-0.741515 33.403999 -21.055946 0.000000 0.000000 0.000000 171.858447 -55.619098 172.171133 -36.021438 -7.568478 7.731047 42.973706 -1.895694 -2.206326 -7.138315 2.579019 -6.889014 0.554678 10.423533 -7.666708 0.000000 0.000000 0.000000 171.858447 -55.619098 172.171133 -12.698269 -8.486891 9.547384 23.568729 17.513075 3.088804 -11.603348 -0.930544 -16.702623 -2.532272 -7.847299 0.422490 0.000000 0.000000 0.000000 171.858447 -55.619098 172.171133 5.550543 2.402803 3.428265 -4.780149 2.924334 -2.745298 0.000000 0.000000 0.000000 0.000000 0.000000 0.000000 -4.630335 2.689121 -3.101843 1.155757 19.904768 9.110444 2.411542 23.932093 -11.826765 0.000000 0.000000 0.000000 -4.630335 2.689121 -3.101843 1.095809 -0.075119 0.979770 0.000000 0.000000 0.000000 7.590582 1.535503 -71.647373 10.023778 -14.552000 -9.196447 0.000000 0.000000 0.000000 -4.630335 2.689121 -3.101843 2.421333 -3.425020 16.328179 0.000000 0.000000 0.000000 10.845216 33.443885 52.653635 13.606755 25.436956 -1.713361 0.000000 0.000000 0.000000 
-1.273903 33.337482 -22.043491 0.000000 0.000000 0.000000 173.224403 -49.868434 173.756037 -39.491389 -12.774525 3.402983 38.706211 -2.903239 -1.897985 -1.913883 2.668803 -8.641473 0.491883 12.105979 -9.797293 0.000000 0.000000 0.000000 173.224403 -49.868434 173.756037 -12.072746 -6.519737 10.510240 23.563743 21.467167 4.207685 -10.569868 -1.259629 -19.345415 -2.711649 -7.717999 0.385990 0.000000 0.000000 0.000000 173.224403 -49.868434 173.756037 5.880035 2.730730 2.708068 -4.340192 3.082377 -2.375848 0.000000 0.000000 0.000000 0.000000 0.000000 0.000000 -4.206305 2.861866 -2.734082 0.950729 16.316506 7.563395 0.407512 19.778517 -9.101175 0.000000 0.000000 0.000000 -4.206305 2.861866 -2.734082 1.107252 0.303883 0.807294 0.000000 0.000000 0.000000 7.408447 2.071035 -72.955149 10.915612 -11.563114 -9.734068 0.000000 0.000000 0.000000 -4.206305 2.861866 -2.734082 2.431056 -3.326006 15.793050 0.000000 0.000000 0.000000 8.839838 35.899252 53.578131 13.326705 24.465251 -2.246130 0.000000 0.000000 0.000000 
-1.781585 33.233204 -23.111763 0.000000 0.000000 0.000000 174.254969 -44.096890 174.977275 -42.223400 -15.290616 0.237662 32.425333 -5.805069 -1.590368 3.489110 2.550657 -10.181760 1.692796 11.246899 -12.677500 0.000000 0.000000 0.000000 174.254969 -44.096890 174.977275 -11.377088 -4.764991 11.335408 23.935737 25.291659 5.267721 -9.736399 -1.266287 -21.959784 -2.901881 -7.601084 0.358160 0.000000 0.000000 0.000000 174.254969 -44.096890 174.977275 6.173999 3.016915 1.879833 -3.823016 3.170190 -1.918939 0.000000 0.000000 0.000000 0.000000 0.000000 0.000000 -3.711999 2.972070 -2.266648 1.045935 12.881306 6.238502 -1.276175 15.692117 -6.400006 0.000000 0.000000 0.000000 -3.711999 2.972070 -2.266648 1.128071 0.848201 0.264311 0.000000 0.000000 0.000000 7.633034 2.661707 -73.734938 11.313425 -9.654545 -10.121426 0.000000 0.000000 0.000000 -3.711999 2.972070 -2.266648 2.440288 -3.221733 15.234320 0.000000 0.000000 0.000000 6.725023 38.339122 54.763770 13.038076 23.453596 -2.773340 0.000000 0.000000 0.000000 
-2.240664 33.058220 -24.279457 0.000000 0.000000 0.000000 174.988094 -38.533667 175.793223 -44.359497 -17.240868 -2.211466 26.071375 -7.657020 -1.139552 10.055765 2.189920 -13.119888 1.167977 11.639384 -14.489410 0.000000 0.000000 0.000000 174.988094 -38.533667 175.793223 -10.527425 -3.342689 12.196165 24.699374 28.955337 6.206689 -9.190335 -0.998784 -24.702071 -3.091838 -7.501898 0.338469 0.000000 0.000000 0.000000 174.988094 -38.533667 175.793223 6.488961 3.288366 1.177726 -3.332909 3.215097 -1.491993 0.000000 0.000000 0.000000 0.000000 0.000000 0.000000 -3.245039 3.039653 -1.825540 1.967953 9.973768 5.143723 -2.713794 12.030571 -3.645688 0.000000 0.000000 0.000000 -3.245039 3.039653 -1.825540 1.160111 1.423514 -0.352096 0.000000 0.000000 0.000000 8.211008 3.231014 -74.239860 11.193031 -8.407374 -10.459092 0.000000 0.000000 0.000000 -3.245039 3.039653 -1.825540 2.449886 -3.114356 14.659326 0.000000 0.000000 0.000000 4.548044 40.712326 56.200040 12.752592 22.436096 -3.289727 0.000000 0.000000 0.000000 
-2.592505 32.883072 -25.542191 0.000000 0.000000 0.000000 175.409927 -33.962207 176.252376 -45.402757 -17.774381 -3.839850 19.727442 -8.709536 -0.570847 13.877677 1.837355 -14.947849 0.655683 9.305101 -14.398085 0.000000 0.000000 0.000000 175.409927 -33.962207 176.252376 -8.892401 -2.193030 13.134922 24.629536 31.701118 6.977918 -8.598972 -0.421303 -27.286981 -3.270543 -7.424772 0.326385 0.000000 0.000000 0.000000 175.409927 -33.962207 176.252376 6.848041 3.361401 0.699954 -2.958950 3.119210 -1.202291 0.000000 0.000000 0.000000 0.000000 0.000000 0.000000 -2.890248 2.964197 -1.511321 2.974942 7.288107 4.162602 -3.657077 8.610169 -1.318655 0.000000 0.000000 0.000000 -2.890248 2.964197 -1.511321 1.203327 2.030693 -1.104185 0.000000 0.000000 0.000000 8.996720 3.600613 -74.207096 10.679353 -7.754188 -10.762601 0.000000 0.000000 0.000000 -2.890248 2.964197 -1.511321 2.461204 -3.000605 14.094324 0.000000 0.000000 0.000000 3.695120 42.211583 57.170374 12.786337 22.710068 -4.000847 0.000000 0.000000 0.000000 
-2.840471 32.755035 -26.776108 0.000000 0.000000 0.000000 175.700770 -29.797868 176.608352 -45.105535 -17.062461 -4.565282 13.408519 -8.730951 0.142571 15.514554 1.539367 -16.206024 -0.112257 7.747966 -14.811067 0.000000 0.000000 0.000000 175.700770 -29.797868 176.608352 -6.854428 -1.325876 13.783487 23.735302 34.005951 7.672915 -7.562458 0.537827 -29.437511 -3.445089 -7.375605 0.280048 0.000000 0.000000 0.000000 175.700770 -29.797868 176.608352 7.209937 3.313093 0.273527 -2.626756 2.962719 -0.968953 0.000000 0.000000 0.000000 0.000000 0.000000 0.000000 -2.575455 2.827451 -1.248811 3.718035 4.582338 3.268666 -4.229220 5.226748 0.707530 0.000000 0.000000 0.000000 -2.575455 2.827451 -1.248811 1.261564 2.444825 -1.823093 0.000000 0.000000 0.000000 9.445930 3.915493 -73.928424 10.681891 -7.169276 -10.956983 0.000000 0.000000 0.000000 -2.575455 2.827451 -1.248811 2.473812 -2.885295 13.525432 0.000000 0.000000 0.000000 3.337881 43.403404 57.950597 12.978822 23.409080 -4.764830 0.000000 0.000000 0.000000 
-3.003711 32.690292 -27.928215 0.000000 0.000000 0.000000 175.903012 -25.969305 176.916557 -44.033400 -15.347577 -4.754758 7.963710 -7.158013 0.980921 16.528993 1.073981 -16.545121 -0.566601 6.764602 -15.653400 0.000000 0.000000 0.000000 175.903012 -25.969305 176.916557 -4.632156 -0.692853 14.160654 22.362569 35.678022 8.078343 -6.165257 1.911520 -30.976523 -3.723940 -7.337276 0.068099 0.000000 0.000000 0.000000 175.903012 -25.969305 176.916557 7.554946 3.155548 -0.128127 -2.329836 2.766909 -0.777432 0.000000 0.000000 0.000000 0.000000 0.000000 0.000000 -2.294284 2.650688 -1.025420 3.627717 2.091822 2.837744 -4.406508 2.412244 1.711785 0.000000 0.000000 0.000000 -2.294284 2.650688 -1.025420 1.298286 2.500518 -1.869821 0.000000 0.000000 0.000000 9.518404 4.177462 -73.823642 10.948657 -6.713268 -11.015950 0.000000 0.000000 0.000000 -2.294284 2.650688 -1.025420 2.488463 -2.768406 12.965414 0.000000 0.000000 0.000000 3.432284 44.322614 58.515993 13.246664 24.417733 -5.543393 0.000000 0.000000 0.000000 
